<?xml version="1.0" encoding="UTF-8" standalone="no"?>
<!-- Created with Inkscape (http://www.inkscape.org/) -->

<svg
   width="500"
   height="130"
   viewBox="0 0 132.29166 34.395833"
   version="1.1"
   id="svg5"
   xml:space="preserve"
   inkscape:version="1.3.2 (091e20e, 2023-11-25, custom)"
   sodipodi:docname="imagem.svg"
   xmlns:inkscape="http://www.inkscape.org/namespaces/inkscape"
   xmlns:sodipodi="http://sodipodi.sourceforge.net/DTD/sodipodi-0.dtd"
   xmlns="http://www.w3.org/2000/svg"
   xmlns:svg="http://www.w3.org/2000/svg"><sodipodi:namedview
     id="namedview7"
     pagecolor="#8c8c8c"
     bordercolor="#1aff0d"
     borderopacity="1"
     inkscape:showpageshadow="false"
     inkscape:pageopacity="0"
     inkscape:pagecheckerboard="0"
     inkscape:deskcolor="#8c8c8c"
     inkscape:document-units="mm"
     showgrid="false"
     inkscape:zoom="1.5591705"
     inkscape:cx="216.46126"
     inkscape:cy="34.954485"
     inkscape:window-width="1920"
     inkscape:window-height="1001"
     inkscape:window-x="1911"
     inkscape:window-y="-8"
     inkscape:window-maximized="1"
     inkscape:current-layer="g3" /><defs
     id="defs2"><mask
   maskUnits="userSpaceOnUse"
   id="mask911"><rect
     style="fill:#ffffff;fill-opacity:1;stroke-width:0.261625"
     id="rect913"
     width="211.65829"
     height="92.524544"
     x="39.770271"
     y="64.171951" /></mask><rect
   id="SVGID_1_"
   x="-0.33899999"
   y="-0.18099999"
   style="opacity:0.24"
   width="500"
   height="500" /><rect
   id="SVGID_00000176740931126895536020000018432191031841157798_"
   style="opacity:0.27"
   width="500"
   height="500"
   x="0"
   y="0" />
	
	
	
	
	
	
	
	

		
		
			
		
		
			
		
	
			
			
				
			
			
		</defs><g
     inkscape:label="Camada 1"
     inkscape:groupmode="layer"
     id="layer1"><g
       id="g3"
       transform="matrix(0.26458333,0,0,0.26458333,145.56568,13.313109)"><g
         id="g4"
         transform="matrix(2.2551949,0,0,2.2551949,-1162.0459,-756.06161)"><text
           style="font-size:17.1743px;font-family:Norwester-Regular;letter-spacing:0.999983;fill:#ffffff;fill-opacity:1;stroke-width:0.999983"
           id="text8844"
           x="349.14737"
           y="348.12521"
           transform="scale(1.0000165,0.9999835)">FITHUB</text><g
           id="g8847"
           transform="translate(3.2068335,-35.916535)"
           style="fill:#ffffff;fill-opacity:1">
				<path
   style="fill:#ffffff;fill-opacity:1"
   d="m 289.153,399.41 h -3.871 c -1.285,0 -2.336,-1.051 -2.336,-2.336 v -38.786 c 0,-1.285 1.051,-2.336 2.336,-2.336 h 3.871 c 1.285,0 2.336,1.051 2.336,2.336 v 38.786 c 0,1.285 -1.051,2.336 -2.336,2.336 z"
   id="path8844" />
				<path
   style="fill:#ffffff;fill-opacity:1"
   d="m 278.795,394.334 h -3.955 c -1.262,0 -2.294,-1.032 -2.294,-2.294 v -28.718 c 0,-1.262 1.032,-2.294 2.294,-2.294 h 3.955 c 1.262,0 2.294,1.032 2.294,2.294 v 28.718 c 0,1.262 -1.032,2.294 -2.294,2.294 z"
   id="path8845" />
				<path
   style="fill:#ffffff;fill-opacity:1"
   d="m 299.52,403.867 h -3.805 c -1.303,0 -2.369,-1.066 -2.369,-2.369 v -47.635 c 0,-1.303 1.066,-2.369 2.369,-2.369 h 3.805 c 1.303,0 2.369,1.066 2.369,2.369 v 47.635 c 10e-4,1.303 -1.066,2.369 -2.369,2.369 z"
   id="path8846" />
				<g
   id="g8846"
   style="fill:#ffffff;fill-opacity:1">
					<rect
   x="297.48999"
   y="374.522"
   style="fill:#ffffff;fill-opacity:1"
   width="45.799"
   height="6.1339998"
   id="rect8846" />
				</g>
			</g><g
           id="g8850"
           transform="translate(33.671752,-35.916535)"
           style="fill:#ffffff;fill-opacity:1">
				<path
   style="fill:#ffffff;fill-opacity:1"
   d="m 438.316,399.41 h 3.871 c 1.285,0 2.336,-1.051 2.336,-2.336 v -38.786 c 0,-1.285 -1.051,-2.336 -2.336,-2.336 h -3.871 c -1.285,0 -2.336,1.051 -2.336,2.336 v 38.786 c 0,1.285 1.051,2.336 2.336,2.336 z"
   id="path8847" />
				<path
   style="fill:#ffffff;fill-opacity:1"
   d="m 448.674,394.334 h 3.955 c 1.262,0 2.294,-1.032 2.294,-2.294 v -28.718 c 0,-1.262 -1.032,-2.294 -2.294,-2.294 h -3.955 c -1.262,0 -2.294,1.032 -2.294,2.294 v 28.718 c 0,1.262 1.032,2.294 2.294,2.294 z"
   id="path8848" />
				<path
   style="fill:#ffffff;fill-opacity:1"
   d="m 427.949,403.867 h 3.805 c 1.303,0 2.369,-1.066 2.369,-2.369 v -47.635 c 0,-1.303 -1.066,-2.369 -2.369,-2.369 h -3.805 c -1.303,0 -2.369,1.066 -2.369,2.369 v 47.635 c -10e-4,1.303 1.066,2.369 2.369,2.369 z"
   id="path8849" />
				<g
   id="g8849"
   style="fill:#ffffff;fill-opacity:1">
					<rect
   x="383.36301"
   y="374.72699"
   style="fill:#ffffff;fill-opacity:1"
   width="45.799"
   height="6.1339998"
   id="rect8849" />
				</g>
			</g></g></g></g></svg>
